<svg width="510" height="118" viewBox="0 0 510 118" fill="none" xmlns="http://www.w3.org/2000/svg">
<path d="M59.4687 38.9453H58.5469L58.5469 117.996H59.4687V38.9453Z" fill="#788162"/>
<path d="M52.5393 34.4975C54.491 36.0959 56.3703 37.395 58.5462 38.9461H59.4696C61.4814 37.395 63.2189 36.0959 65.0233 34.4975C72.9482 27.4774 71.4032 20.048 69.2722 14.286C67.1413 8.52396 62.2406 2.64649 60.3234 0.572182C59.6075 -0.202374 58.3684 -0.173738 57.6227 0.572182C55.5491 2.64649 50.2485 8.52396 47.9437 14.286C45.6389 20.048 43.9678 27.4774 52.5393 34.4975Z" fill="#EE8E32"/>
<path d="M59.4688 57.1523V53.9916C59.4688 53.9916 61.1222 52.3322 61.4625 51.4424C63.3071 46.6189 65.5769 42.0825 69.4595 38.5295C76.0837 32.4677 84.141 30.7294 92.8131 30.8888C94.9183 30.9274 94.5412 32.4527 94.3271 33.695C92.6832 43.2371 87.5514 50.1954 78.7396 54.3701C72.8891 57.1418 59.4688 57.1523 59.4688 57.1523Z" fill="#8FA55A"/>
<path d="M58.5469 57.1523V53.9916C58.5469 53.9916 56.8934 52.3322 56.5531 51.4424C54.7085 46.6189 52.4388 42.0825 48.5561 38.5295C41.932 32.4677 33.8746 30.7294 25.2026 30.8888C23.0973 30.9274 23.4745 32.4527 23.6885 33.695C25.3324 43.2371 30.4642 50.1954 39.2761 54.3701C45.1265 57.1418 58.5469 57.1523 58.5469 57.1523Z" fill="#8FA55A"/>
<ellipse cx="30.199" cy="19.1269" rx="5.76146" ry="5.7617" fill="#F9B143"/>
<ellipse cx="87.8083" cy="19.1269" rx="5.76146" ry="5.7617" fill="#F9B143"/>
<path d="M55.0797 117.658C55.6754 117.175 54.9628 107.11 55.0814 101.379C55.2093 95.1986 52.723 90.2994 48.2429 86.2513C47.3443 85.4393 46.4544 84.3798 45.3823 83.5488C42.2908 82.3036 37.1987 79.9094 37.1987 79.9094L36.6063 79.6699C35.7486 80.5218 34.0601 81.1376 33.2358 81.8079C28.193 85.9084 23.2061 90.0835 19.5397 95.5387C18.2981 97.3861 17.855 99.3899 16.9126 101.525C25.1677 109.679 34.5857 114.748 45.6924 117.21C47.7336 117.662 50.2743 117.998 52.1344 117.998C53.7185 117.998 54.6602 117.998 55.0797 117.658Z" fill="#93AD89"/>
<path d="M0.533443 70.41C0.685649 71.3805 1.03137 72.2447 1.27486 73.0722C2.31783 76.6165 3.21902 80.359 4.50658 84.0077C4.95205 83.4124 5.31728 82.5399 5.4051 81.8349C5.57423 80.4772 5.35319 78.9958 5.81641 77.7635C7.25312 73.9415 8.92052 70.4123 10.4766 66.4921C7.64759 62.6755 4.86357 58.8139 2.06521 55.1523C1.60793 57.0345 1.42706 58.0018 0.685649 60.779C-0.148824 63.9048 -0.23281 68.154 0.533443 70.41Z" fill="#96B08C"/>
<path d="M10.4836 66.4922C8.89694 70.2574 7.26116 73.9415 5.82445 77.7635C5.36123 78.9958 5.58227 80.4772 5.41314 81.8349C5.32532 82.54 4.873 83.2714 4.51361 84.0077C6.14934 89.1755 9.33031 93.5428 12.7988 97.6556C13.8811 98.9388 15.6429 100.22 16.9128 101.523C18.0714 99.5811 18.3002 97.3841 19.5418 95.5367C23.2081 90.0814 28.1951 85.9063 33.2379 81.8058C34.0621 81.1356 36.0214 80.5988 36.7422 79.6775C31.9937 75.7802 27.0174 71.0543 23.3041 66.4195C21.9467 64.7252 20.9984 62.2162 18.2905 61.8828C16.7236 64.8544 17.0563 67.6715 19.4865 70.2318C20.9545 71.7784 22.6032 73.1513 24.1504 74.6237C24.7235 75.169 25.2387 75.7755 25.5691 76.6246C21.1787 75.6489 17.64 73.406 14.6167 69.7187C13.1625 68.4678 11.7353 67.5751 10.4836 66.4922Z" fill="#A6BC9E"/>
<path d="M18.2866 61.883C20.9669 62.3736 21.9407 64.7253 23.2981 66.4196C27.0114 71.0545 30.7894 75.5683 35.6054 79.3261C35.9683 79.5167 36.6072 79.6676 36.6072 79.6676C36.6072 79.6676 40.3064 77.0042 42.0625 75.7182C41.947 73.3559 41.9813 70.9748 41.6894 68.6346C40.5819 59.7575 27.7607 53.9633 20.6187 59.0992C19.7252 59.7417 19.0737 60.8956 18.2866 61.883Z" fill="#86A47B"/>
<path d="M10.3357 66.5403C11.618 67.7782 13.2087 68.6162 14.6159 69.7182C14.0691 66.098 13.8904 62.5173 15.4375 58.8031C12.1276 56.3955 8.91082 54.2705 5.69407 52.1454C3.67645 51.9404 2.27113 52.8401 2.06962 55.2474C4.84213 59.0642 7.50677 62.7238 10.3357 66.5403Z" fill="#CAD9C3"/>
<path d="M5.50923 52.2533C8.61014 54.5006 12.0483 56.6989 15.3827 58.9368C16.3236 58.3754 17.1964 57.3649 18.0508 56.733C19.258 55.84 20.6668 54.8073 19.9283 53.2185C19.3056 51.8789 18.1239 50.221 16.8654 49.8675C13.0166 48.7867 8.84565 49.1618 5.50923 52.2533Z" fill="#96B18A"/>
<path d="M42.0626 75.6582C40.233 76.7842 38.4309 78.2377 36.6069 79.6634C39.401 81.0917 42.4248 82.3804 45.3828 83.5458C44.4032 80.9436 43.2117 78.2972 42.0626 75.6582Z" fill="#7F9D73"/>
<path d="M62.9281 117.658C62.3324 117.175 63.045 107.11 62.9264 101.379C62.7986 95.1986 65.2848 90.2994 69.7649 86.2513C70.6635 85.4393 71.5534 84.3798 72.6255 83.5488C75.717 82.3036 80.8091 79.9094 80.8091 79.9094L81.4015 79.6699C82.2592 80.5218 83.9477 81.1376 84.772 81.8079C89.8148 85.9084 94.8017 90.0835 98.4681 95.5387C99.7097 97.3861 100.153 99.3899 101.095 101.525C92.8401 109.679 83.4221 114.748 72.3154 117.21C70.2742 117.662 67.7335 117.998 65.8734 117.998C64.2893 117.998 63.3476 117.998 62.9281 117.658Z" fill="#93AD89"/>
<path d="M117.474 70.41C117.322 71.3805 116.976 72.2447 116.733 73.0722C115.69 76.6165 114.789 80.359 113.501 84.0077C113.056 83.4124 112.691 82.5399 112.603 81.8349C112.434 80.4772 112.655 78.9958 112.191 77.7635C110.755 73.9415 109.087 70.4123 107.531 66.4921C110.36 62.6755 113.144 58.8139 115.943 55.1523C116.4 57.0345 116.581 58.0018 117.322 60.779C118.157 63.9048 118.241 68.154 117.474 70.41Z" fill="#96B08C"/>
<path d="M107.524 66.4922C109.111 70.2574 110.747 73.9415 112.183 77.7635C112.647 78.9958 112.426 80.4772 112.595 81.8349C112.682 82.54 113.135 83.2714 113.494 84.0077C111.858 89.1755 108.678 93.5428 105.209 97.6556C104.127 98.9388 102.365 100.22 101.095 101.523C99.9364 99.5811 99.7076 97.3841 98.466 95.5367C94.7997 90.0814 89.8128 85.9063 84.77 81.8058C83.9457 81.1356 81.9864 80.5988 81.2656 79.6775C86.0142 75.7802 90.9904 71.0543 94.7037 66.4195C96.0612 64.7252 97.0095 62.2162 99.7173 61.8828C101.284 64.8544 100.951 67.6715 98.5213 70.2318C97.0533 71.7784 95.4047 73.1513 93.8574 74.6237C93.2843 75.169 92.7691 75.7755 92.4387 76.6246C96.8291 75.6489 100.368 73.406 103.391 69.7187C104.845 68.4678 106.273 67.5751 107.524 66.4922Z" fill="#A6BC9E"/>
<path d="M99.7212 61.883C97.0409 62.3736 96.0671 64.7253 94.7097 66.4196C90.9964 71.0545 87.2184 75.5683 82.4024 79.3261C82.0395 79.5167 81.4006 79.6676 81.4006 79.6676C81.4006 79.6676 77.7014 77.0042 75.9453 75.7182C76.0608 73.3559 76.0265 70.9748 76.3184 68.6346C77.426 59.7575 90.2471 53.9633 97.3891 59.0992C98.2826 59.7417 98.9341 60.8956 99.7212 61.883Z" fill="#86A47B"/>
<path d="M107.672 66.5403C106.39 67.7782 104.799 68.6162 103.392 69.7182C103.939 66.098 104.117 62.5173 102.57 58.8031C105.88 56.3955 109.097 54.2705 112.314 52.1454C114.331 51.9404 115.737 52.8401 115.938 55.2474C113.166 59.0642 110.501 62.7238 107.672 66.5403Z" fill="#CAD9C3"/>
<path d="M112.499 52.2533C109.398 54.5006 105.96 56.6989 102.625 58.9368C101.684 58.3754 100.811 57.3649 99.9571 56.733C98.7498 55.84 97.341 54.8073 98.0795 53.2185C98.7022 51.8789 99.8839 50.221 101.142 49.8675C104.991 48.7867 109.162 49.1618 112.499 52.2533Z" fill="#96B18A"/>
<path d="M75.9452 75.6582C77.7749 76.7842 79.5769 78.2377 81.4009 79.6634C78.6068 81.0917 75.583 82.3804 72.625 83.5458C73.6046 80.9436 74.7961 78.2972 75.9452 75.6582Z" fill="#7F9D73"/>
<ellipse cx="5.76927" cy="38.4844" rx="5.76146" ry="5.7617" fill="#F9B143"/>
<ellipse cx="112.238" cy="38.4844" rx="5.76146" ry="5.7617" fill="#F9B143"/>
<path d="M201.56 95.45L197.15 77.9H175.64L170.87 95L159.35 94.1L167.27 72.23L179.33 33.53L195.44 32.36L207.05 70.88L214.52 93.47L201.56 95.45ZM187.34 44.06H186.17L178.43 68.36H194.45L187.34 44.06ZM247.602 95.9L236.892 79.97L225.822 95.9L216.912 90.95L231.042 72.68L217.632 56.12L227.622 49.28L237.432 64.49L248.052 49.1L256.782 54.5L243.372 71.96L257.592 89.06L247.602 95.9ZM275.651 49.19L274.571 71.6L275.561 92.75L263.501 95L264.581 73.13L263.591 51.44L275.651 49.19ZM262.961 36.05C262.961 34.01 263.741 32.21 265.301 30.65C266.861 29.03 268.661 28.22 270.701 28.22C272.741 28.22 274.301 28.79 275.381 29.93C276.461 31.01 277.001 32.66 277.001 34.88C277.001 37.1 276.221 39.02 274.661 40.64C273.161 42.2 271.391 42.98 269.351 42.98C267.371 42.98 265.811 42.32 264.671 41C263.531 39.68 262.961 38.03 262.961 36.05ZM311.664 72.23C311.664 68.09 311.304 65.33 310.584 63.95C309.864 62.57 308.184 61.88 305.544 61.88C302.904 61.88 299.904 62.93 296.544 65.03V71.6L297.534 92.75L285.474 95L286.554 73.13C286.314 65.09 285.654 57.89 284.574 51.53L295.464 49.19C295.884 52.67 296.184 56.06 296.364 59.36C297.264 58.16 298.284 56.99 299.424 55.85C300.564 54.65 302.364 53.33 304.824 51.89C307.284 50.39 309.774 49.64 312.294 49.64C314.814 49.64 316.944 50.45 318.684 52.07C320.424 53.69 321.534 55.91 322.014 58.73C326.994 52.67 332.034 49.64 337.134 49.64C340.314 49.64 342.834 50.72 344.694 52.88C346.554 54.98 347.484 57.86 347.484 61.52L346.944 71.6L347.934 93.2L335.784 95.45L336.864 72.23C336.864 68.09 336.504 65.33 335.784 63.95C335.064 62.57 333.414 61.88 330.834 61.88C328.254 61.88 325.344 62.87 322.104 64.85L321.744 71.6L322.734 93.2L310.584 95.45L311.664 72.23ZM369.87 49.19L368.79 71.6L369.78 92.75L357.72 95L358.8 73.13L357.81 51.44L369.87 49.19ZM357.18 36.05C357.18 34.01 357.96 32.21 359.52 30.65C361.08 29.03 362.88 28.22 364.92 28.22C366.96 28.22 368.52 28.79 369.6 29.93C370.68 31.01 371.22 32.66 371.22 34.88C371.22 37.1 370.44 39.02 368.88 40.64C367.38 42.2 365.61 42.98 363.57 42.98C361.59 42.98 360.03 42.32 358.89 41C357.75 39.68 357.18 38.03 357.18 36.05ZM392.113 25.34L390.943 71.6L391.933 92.75L379.783 95L380.863 73.13L379.783 27.59L392.113 25.34ZM414.606 49.19L413.526 71.6L414.516 92.75L402.456 95L403.536 73.13L402.546 51.44L414.606 49.19ZM401.916 36.05C401.916 34.01 402.696 32.21 404.256 30.65C405.816 29.03 407.616 28.22 409.656 28.22C411.696 28.22 413.256 28.79 414.336 29.93C415.416 31.01 415.956 32.66 415.956 34.88C415.956 37.1 415.176 39.02 413.616 40.64C412.116 42.2 410.346 42.98 408.306 42.98C406.326 42.98 404.766 42.32 403.626 41C402.486 39.68 401.916 38.03 401.916 36.05ZM421.819 76.19C421.819 68.51 423.889 62 428.029 56.66C432.169 51.32 436.999 48.65 442.519 48.65C448.099 48.65 452.419 50.45 455.479 54.05C458.599 57.65 460.159 62.42 460.159 68.36C460.159 76.28 458.149 82.88 454.129 88.16C450.169 93.38 445.159 95.99 439.099 95.99C434.119 95.99 429.979 94.13 426.679 90.41C423.439 86.63 421.819 81.89 421.819 76.19ZM450.079 73.04C450.079 64.34 447.109 59.99 441.169 59.99C434.989 59.99 431.899 64.07 431.899 72.23C431.899 76.49 432.769 79.82 434.509 82.22C436.249 84.62 438.529 85.82 441.349 85.82C444.229 85.82 446.389 84.74 447.829 82.58C449.329 80.36 450.079 77.18 450.079 73.04ZM494.037 72.23C494.037 68.09 493.677 65.33 492.957 63.95C492.237 62.57 490.557 61.88 487.917 61.88C485.277 61.88 482.277 62.93 478.917 65.03V71.6L479.907 92.75L467.847 95L468.927 73.13C468.687 65.09 468.027 57.89 466.947 51.53L477.837 49.19C478.257 52.67 478.557 56.06 478.737 59.36C479.637 58.16 480.657 56.99 481.797 55.85C482.937 54.65 484.737 53.33 487.197 51.89C489.657 50.39 492.237 49.64 494.937 49.64C497.697 49.64 500.007 50.72 501.867 52.88C503.727 54.98 504.657 57.86 504.657 61.52L504.117 71.6L505.107 93.2L492.957 95.45L494.037 72.23Z" fill="black"/>
<path d="M201.56 95.45L197.15 77.9H175.64L170.87 95L159.35 94.1L167.27 72.23L179.33 33.53L195.44 32.36L207.05 70.88L214.52 93.47L201.56 95.45ZM187.34 44.06H186.17L178.43 68.36H194.45L187.34 44.06ZM247.602 95.9L236.892 79.97L225.822 95.9L216.912 90.95L231.042 72.68L217.632 56.12L227.622 49.28L237.432 64.49L248.052 49.1L256.782 54.5L243.372 71.96L257.592 89.06L247.602 95.9ZM275.651 49.19L274.571 71.6L275.561 92.75L263.501 95L264.581 73.13L263.591 51.44L275.651 49.19ZM262.961 36.05C262.961 34.01 263.741 32.21 265.301 30.65C266.861 29.03 268.661 28.22 270.701 28.22C272.741 28.22 274.301 28.79 275.381 29.93C276.461 31.01 277.001 32.66 277.001 34.88C277.001 37.1 276.221 39.02 274.661 40.64C273.161 42.2 271.391 42.98 269.351 42.98C267.371 42.98 265.811 42.32 264.671 41C263.531 39.68 262.961 38.03 262.961 36.05ZM311.664 72.23C311.664 68.09 311.304 65.33 310.584 63.95C309.864 62.57 308.184 61.88 305.544 61.88C302.904 61.88 299.904 62.93 296.544 65.03V71.6L297.534 92.75L285.474 95L286.554 73.13C286.314 65.09 285.654 57.89 284.574 51.53L295.464 49.19C295.884 52.67 296.184 56.06 296.364 59.36C297.264 58.16 298.284 56.99 299.424 55.85C300.564 54.65 302.364 53.33 304.824 51.89C307.284 50.39 309.774 49.64 312.294 49.64C314.814 49.64 316.944 50.45 318.684 52.07C320.424 53.69 321.534 55.91 322.014 58.73C326.994 52.67 332.034 49.64 337.134 49.64C340.314 49.64 342.834 50.72 344.694 52.88C346.554 54.98 347.484 57.86 347.484 61.52L346.944 71.6L347.934 93.2L335.784 95.45L336.864 72.23C336.864 68.09 336.504 65.33 335.784 63.95C335.064 62.57 333.414 61.88 330.834 61.88C328.254 61.88 325.344 62.87 322.104 64.85L321.744 71.6L322.734 93.2L310.584 95.45L311.664 72.23ZM369.87 49.19L368.79 71.6L369.78 92.75L357.72 95L358.8 73.13L357.81 51.44L369.87 49.19ZM357.18 36.05C357.18 34.01 357.96 32.21 359.52 30.65C361.08 29.03 362.88 28.22 364.92 28.22C366.96 28.22 368.52 28.79 369.6 29.93C370.68 31.01 371.22 32.66 371.22 34.88C371.22 37.1 370.44 39.02 368.88 40.64C367.38 42.2 365.61 42.98 363.57 42.98C361.59 42.98 360.03 42.32 358.89 41C357.75 39.68 357.18 38.03 357.18 36.05ZM392.113 25.34L390.943 71.6L391.933 92.75L379.783 95L380.863 73.13L379.783 27.59L392.113 25.34ZM414.606 49.19L413.526 71.6L414.516 92.75L402.456 95L403.536 73.13L402.546 51.44L414.606 49.19ZM401.916 36.05C401.916 34.01 402.696 32.21 404.256 30.65C405.816 29.03 407.616 28.22 409.656 28.22C411.696 28.22 413.256 28.79 414.336 29.93C415.416 31.01 415.956 32.66 415.956 34.88C415.956 37.1 415.176 39.02 413.616 40.64C412.116 42.2 410.346 42.98 408.306 42.98C406.326 42.98 404.766 42.32 403.626 41C402.486 39.68 401.916 38.03 401.916 36.05ZM421.819 76.19C421.819 68.51 423.889 62 428.029 56.66C432.169 51.32 436.999 48.65 442.519 48.65C448.099 48.65 452.419 50.45 455.479 54.05C458.599 57.65 460.159 62.42 460.159 68.36C460.159 76.28 458.149 82.88 454.129 88.16C450.169 93.38 445.159 95.99 439.099 95.99C434.119 95.99 429.979 94.13 426.679 90.41C423.439 86.63 421.819 81.89 421.819 76.19ZM450.079 73.04C450.079 64.34 447.109 59.99 441.169 59.99C434.989 59.99 431.899 64.07 431.899 72.23C431.899 76.49 432.769 79.82 434.509 82.22C436.249 84.62 438.529 85.82 441.349 85.82C444.229 85.82 446.389 84.74 447.829 82.58C449.329 80.36 450.079 77.18 450.079 73.04ZM494.037 72.23C494.037 68.09 493.677 65.33 492.957 63.95C492.237 62.57 490.557 61.88 487.917 61.88C485.277 61.88 482.277 62.93 478.917 65.03V71.6L479.907 92.75L467.847 95L468.927 73.13C468.687 65.09 468.027 57.89 466.947 51.53L477.837 49.19C478.257 52.67 478.557 56.06 478.737 59.36C479.637 58.16 480.657 56.99 481.797 55.85C482.937 54.65 484.737 53.33 487.197 51.89C489.657 50.39 492.237 49.64 494.937 49.64C497.697 49.64 500.007 50.72 501.867 52.88C503.727 54.98 504.657 57.86 504.657 61.52L504.117 71.6L505.107 93.2L492.957 95.45L494.037 72.23Z" fill="#2FF9A1" fill-opacity="0.4"/>
</svg>
