<svg width="32" height="32" viewBox="0 0 32 32" fill="none" xmlns="http://www.w3.org/2000/svg">
<path d="M16.1092 10.5605H15.8594L15.8594 31.9988H16.1092V10.5605Z" fill="#788162"/>
<path d="M14.2409 9.35504C14.7698 9.78853 15.279 10.1408 15.8687 10.5615H16.1189C16.6641 10.1408 17.1349 9.78853 17.6238 9.35504C19.7713 7.45121 19.3527 5.43641 18.7752 3.87377C18.1978 2.31113 16.8698 0.717186 16.3503 0.154644C16.1563 -0.0554126 15.8205 -0.0476466 15.6184 0.154644C15.0565 0.717186 13.6202 2.31113 12.9956 3.87377C12.371 5.43641 11.9182 7.45121 14.2409 9.35504Z" fill="#EE8E32"/>
<path d="M16.125 15.4983V14.6411C16.125 14.6411 16.5731 14.1911 16.6653 13.9498C17.1651 12.6417 17.7802 11.4114 18.8323 10.4479C20.6273 8.80393 22.8107 8.33251 25.1607 8.37572C25.7311 8.38621 25.6289 8.79987 25.5709 9.13677C25.1255 11.7245 23.7349 13.6116 21.347 14.7438C19.7616 15.4954 16.125 15.4983 16.125 15.4983Z" fill="#8FA55A"/>
<path d="M15.8594 15.4983V14.6411C15.8594 14.6411 15.4113 14.1911 15.3191 13.9498C14.8193 12.6417 14.2042 11.4114 13.1521 10.4479C11.3571 8.80393 9.17368 8.33251 6.82372 8.37572C6.25323 8.38621 6.35543 8.79987 6.41343 9.13677C6.8589 11.7245 8.24952 13.6116 10.6374 14.7438C12.2227 15.4954 15.8594 15.4983 15.8594 15.4983Z" fill="#8FA55A"/>
<ellipse cx="8.18624" cy="5.18755" rx="1.56124" ry="1.56255" fill="#F9B143"/>
<ellipse cx="23.8112" cy="5.18755" rx="1.56124" ry="1.56255" fill="#F9B143"/>
<path d="M14.9348 31.9077C15.0962 31.7768 14.9031 29.0472 14.9353 27.4928C14.9699 25.8168 14.2962 24.4881 13.0822 23.3903C12.8387 23.1701 12.5975 22.8828 12.307 22.6574C11.4693 22.3197 10.0894 21.6704 10.0894 21.6704L9.92887 21.6055C9.69644 21.8365 9.2389 22.0035 9.01554 22.1853C7.64904 23.2973 6.29767 24.4296 5.30416 25.909C4.96772 26.41 4.84763 26.9534 4.59225 27.5325C6.82924 29.7439 9.38133 31.1184 12.391 31.7861C12.9442 31.9089 13.6326 31.9998 14.1367 31.9998C14.5659 31.9998 14.8211 31.9998 14.9348 31.9077Z" fill="#93AD89"/>
<path d="M0.157171 19.0949C0.198416 19.358 0.292101 19.5924 0.35808 19.8168C0.640704 20.778 0.88491 21.793 1.23381 22.7825C1.35453 22.621 1.4535 22.3844 1.4773 22.1932C1.52313 21.825 1.46323 21.4233 1.58875 21.0891C1.97807 20.0526 2.4299 19.0955 2.85156 18.0323C2.08497 16.9973 1.33055 15.95 0.57225 14.957C0.448337 15.4675 0.399324 15.7298 0.198416 16.483C-0.0277099 17.3307 -0.0504684 18.483 0.157171 19.0949Z" fill="#96B08C"/>
<path d="M2.84537 18.0313C2.41542 19.0524 1.97215 20.0515 1.58283 21.088C1.45731 21.4222 1.51721 21.824 1.47138 22.1922C1.44758 22.3834 1.32501 22.5817 1.22762 22.7814C1.67087 24.1829 2.53285 25.3673 3.47276 26.4827C3.76603 26.8307 4.24343 27.1781 4.58756 27.5316C4.90153 27.0049 4.96351 26.409 5.29996 25.908C6.29347 24.4286 7.64483 23.2963 9.01133 22.1843C9.23469 22.0025 9.76562 21.857 9.96094 21.6071C8.67418 20.5502 7.32571 19.2685 6.31948 18.0116C5.95164 17.5521 5.69467 16.8717 4.96089 16.7812C4.53628 17.5871 4.62646 18.3511 5.28498 19.0455C5.68278 19.4649 6.12954 19.8372 6.54882 20.2365C6.7041 20.3844 6.84371 20.5489 6.93325 20.7792C5.74353 20.5146 4.78461 19.9063 3.96535 18.9063C3.57129 18.5671 3.18455 18.325 2.84537 18.0313Z" fill="#A6BC9E"/>
<path d="M4.95564 16.7815C5.68195 16.9146 5.94581 17.5524 6.31366 18.0119C7.31988 19.2688 8.34364 20.4929 9.64869 21.512C9.74704 21.5637 9.92016 21.6046 9.92016 21.6046C9.92016 21.6046 10.9226 20.8824 11.3984 20.5336C11.3671 19.8929 11.3764 19.2472 11.2973 18.6126C10.9972 16.2051 7.52293 14.6337 5.58758 16.0266C5.34548 16.2008 5.16893 16.5138 4.95564 16.7815Z" fill="#86A47B"/>
<path d="M2.82065 18.0443C3.16812 18.38 3.59917 18.6073 3.98049 18.9061C3.83232 17.9244 3.7839 16.9533 4.20312 15.946C3.3062 15.2931 2.43452 14.7168 1.56284 14.1405C1.01611 14.0849 0.635295 14.3289 0.58069 14.9817C1.33199 16.0168 2.05405 17.0093 2.82065 18.0443Z" fill="#CAD9C3"/>
<path d="M1.50604 14.171C2.34633 14.7804 3.278 15.3766 4.18155 15.9835C4.43654 15.8312 4.67303 15.5572 4.90455 15.3858C5.2317 15.1436 5.61345 14.8636 5.41332 14.4327C5.24459 14.0694 4.92438 13.6198 4.58334 13.5239C3.54039 13.2308 2.41015 13.3325 1.50604 14.171Z" fill="#96B18A"/>
<path d="M11.3893 20.5176C10.8936 20.823 10.4052 21.2171 9.91097 21.6038C10.6681 21.9911 11.4875 22.3406 12.2891 22.6567C12.0236 21.951 11.7007 21.2333 11.3893 20.5176Z" fill="#7F9D73"/>
<path d="M17.0496 31.9077C16.8881 31.7768 17.0813 29.0472 17.0491 27.4928C17.0145 25.8168 17.6882 24.4881 18.9022 23.3903C19.1457 23.1701 19.3869 22.8828 19.6774 22.6574C20.5151 22.3197 21.895 21.6704 21.895 21.6704L22.0555 21.6055C22.2879 21.8365 22.7455 22.0035 22.9688 22.1853C24.3353 23.2973 25.6867 24.4296 26.6802 25.909C27.0167 26.41 27.1367 26.9534 27.3921 27.5325C25.1551 29.7439 22.603 31.1184 19.5933 31.7861C19.0402 31.9089 18.3517 31.9998 17.8477 31.9998C17.4184 31.9998 17.1633 31.9998 17.0496 31.9077Z" fill="#93AD89"/>
<path d="M31.8585 19.0949C31.8172 19.358 31.7235 19.5924 31.6575 19.8168C31.3749 20.778 31.1307 21.793 30.7818 22.7825C30.6611 22.621 30.5621 22.3844 30.5383 22.1932C30.4925 21.825 30.5524 21.4233 30.4269 21.0891C30.0376 20.0526 29.5857 19.0955 29.1641 18.0323C29.9307 16.9973 30.6851 15.95 31.4434 14.957C31.5673 15.4675 31.6163 15.7298 31.8172 16.483C32.0433 17.3307 32.0661 18.483 31.8585 19.0949Z" fill="#96B08C"/>
<path d="M29.139 18.0313C29.569 19.0524 30.0122 20.0515 30.4015 21.088C30.5271 21.4222 30.4672 21.824 30.513 22.1922C30.5368 22.3834 30.6594 22.5817 30.7568 22.7814C30.3135 24.1829 29.4515 25.3673 28.5116 26.4827C28.2183 26.8307 27.7409 27.1781 27.3968 27.5316C27.0828 27.0049 27.0209 26.409 26.6844 25.908C25.6909 24.4286 24.3395 23.2963 22.973 22.1843C22.7497 22.0025 22.2188 21.857 22.0234 21.6071C23.3102 20.5502 24.6587 19.2685 25.6649 18.0116C26.0327 17.5521 26.2897 16.8717 27.0235 16.7812C27.4481 17.5871 27.3579 18.3511 26.6994 19.0455C26.3016 19.4649 25.8548 19.8372 25.4356 20.2365C25.2803 20.3844 25.1407 20.5489 25.0511 20.7792C26.2408 20.5146 27.1998 19.9063 28.019 18.9063C28.4131 18.5671 28.7998 18.325 29.139 18.0313Z" fill="#A6BC9E"/>
<path d="M27.0287 16.7815C26.3024 16.9146 26.0386 17.5524 25.6707 18.0119C24.6645 19.2688 23.6407 20.4929 22.3357 21.512C22.2373 21.5637 22.0642 21.6046 22.0642 21.6046C22.0642 21.6046 21.0618 20.8824 20.5859 20.5336C20.6172 19.8929 20.6079 19.2472 20.687 18.6126C20.9872 16.2051 24.4614 14.6337 26.3968 16.0266C26.6389 16.2008 26.8154 16.5138 27.0287 16.7815Z" fill="#86A47B"/>
<path d="M29.195 18.0443C28.8475 18.38 28.4165 18.6073 28.0351 18.9061C28.1833 17.9244 28.2317 16.9533 27.8125 15.946C28.7094 15.2931 29.5811 14.7168 30.4528 14.1405C30.9995 14.0849 31.3803 14.3289 31.4349 14.9817C30.6836 16.0168 29.9616 17.0093 29.195 18.0443Z" fill="#CAD9C3"/>
<path d="M30.5018 14.171C29.6615 14.7804 28.7298 15.3766 27.8263 15.9835C27.5713 15.8312 27.3348 15.5572 27.1033 15.3858C26.7761 15.1436 26.3944 14.8636 26.5945 14.4327C26.7632 14.0694 27.0834 13.6198 27.4245 13.5239C28.4674 13.2308 29.5977 13.3325 30.5018 14.171Z" fill="#96B18A"/>
<path d="M20.5872 20.5176C21.083 20.823 21.5713 21.2171 22.0656 21.6038C21.3085 21.9911 20.4891 22.3406 19.6875 22.6567C19.9529 21.951 20.2758 21.2333 20.5872 20.5176Z" fill="#7F9D73"/>
<ellipse cx="1.56124" cy="10.4356" rx="1.56124" ry="1.56255" fill="#F9B143"/>
<ellipse cx="30.405" cy="10.4356" rx="1.56124" ry="1.56255" fill="#F9B143"/>
</svg>
